<svg width="1440" height="48" viewBox="0 0 1440 48" fill="none" xmlns="http://www.w3.org/2000/svg">
<rect width="1440" height="48" fill="#F5F7FA"/>
<path d="M29.104 30.16C31.68 30.16 33.312 28.896 33.312 26.992C33.312 25.504 32.224 24.432 29.984 23.824L28.528 23.44C27.184 23.072 26.496 22.624 26.496 21.632C26.496 20.624 27.488 19.968 28.96 19.968C30.24 19.968 31.248 20.48 31.744 21.648L32.976 21.04C32.288 19.472 30.896 18.64 28.928 18.64C26.592 18.64 24.992 19.92 24.992 21.744C24.992 23.248 26 24.272 27.872 24.784L29.328 25.168C31.136 25.648 31.84 26.208 31.84 27.12C31.84 28.176 30.768 28.832 29.104 28.832C27.52 28.832 26.416 28.112 25.936 26.848L24.656 27.504C25.36 29.216 26.896 30.16 29.104 30.16ZM39.1863 21.92H37.2823V19.264L35.9062 20.16V21.92H34.4023V23.088H35.9062V27.616C35.9062 29.008 36.6743 30 38.2263 30H39.1863V28.784H38.3543C37.6023 28.784 37.2823 28.32 37.2823 27.504V23.088H39.1863V21.92ZM43.926 21.776C42.566 21.776 41.398 22.32 40.79 23.392L41.798 24.144C42.182 23.44 42.934 23.008 43.91 23.008C45.11 23.008 46.15 23.584 46.15 25.088V26.064C45.654 25.504 44.822 25.184 43.702 25.184C41.942 25.184 40.438 26.08 40.438 27.664C40.438 29.28 41.926 30.16 43.67 30.16C44.838 30.16 45.702 29.824 46.198 29.2V30H47.526V24.96C47.526 22.72 45.782 21.776 43.926 21.776ZM44.038 29.072C42.822 29.072 41.862 28.608 41.862 27.664C41.862 26.72 42.822 26.256 44.038 26.256C45.254 26.256 46.182 26.752 46.182 27.664C46.182 28.576 45.254 29.072 44.038 29.072ZM53.4726 21.776C52.4966 21.776 51.6806 22.288 51.2166 23.312V21.92H49.8406V30H51.2166V25.664C51.2166 24.192 52.0326 23.232 53.1846 23.232H53.9526V21.776H53.4726ZM59.7331 21.92H57.8291V19.264L56.4531 20.16V21.92H54.9491V23.088H56.4531V27.616C56.4531 29.008 57.2211 30 58.7731 30H59.7331V28.784H58.9011C58.1491 28.784 57.8291 28.32 57.8291 27.504V23.088H59.7331V21.92ZM64.2489 30.16C66.2649 30.16 67.5609 29.168 67.5609 27.808C67.5609 26.608 66.7609 25.888 65.0809 25.456L64.2649 25.248C63.3529 25.024 62.6009 24.72 62.6009 24C62.6009 23.392 63.2409 22.976 64.2329 22.976C65.0969 22.976 65.9129 23.328 66.3129 24.224L67.4329 23.664C66.8729 22.4 65.6409 21.776 64.2329 21.776C62.4089 21.776 61.2249 22.704 61.2249 24.016C61.2249 25.168 61.9289 25.984 63.5929 26.416L64.4089 26.608C65.6089 26.912 66.1849 27.2 66.1849 27.84C66.1849 28.496 65.4649 28.96 64.2329 28.96C63.3049 28.96 62.4889 28.592 62.0409 27.648L60.9529 28.288C61.5289 29.616 62.8409 30.16 64.2489 30.16ZM76.6965 25.872C76.6965 23.408 75.1285 21.776 73.0005 21.776C70.7605 21.776 69.1285 23.408 69.1285 25.952C69.1285 28.464 70.7925 30.16 73.0645 30.16C74.3605 30.16 75.6085 29.728 76.4565 28.592L75.4965 27.776C74.9045 28.608 74.0725 28.928 73.0965 28.928C71.7205 28.928 70.6485 28.016 70.5365 26.272H76.6805C76.6965 26.144 76.6965 26.016 76.6965 25.872ZM72.9845 22.96C74.1685 22.96 75.0485 23.68 75.2565 25.216H70.5685C70.7925 23.776 71.7045 22.96 72.9845 22.96ZM79.3724 20.048C79.9324 20.048 80.3644 19.664 80.3644 19.088C80.3644 18.544 79.9324 18.144 79.3724 18.144C78.8284 18.144 78.4124 18.544 78.4124 19.088C78.4124 19.664 78.8284 20.048 79.3724 20.048ZM78.6844 21.92V30H80.0604V21.92H78.6844ZM86.5613 21.92H84.6573V19.264L83.2812 20.16V21.92H81.7773V23.088H83.2812V27.616C83.2812 29.008 84.0493 30 85.6013 30H86.5613V28.784H85.7293C84.9773 28.784 84.6573 28.32 84.6573 27.504V23.088H86.5613V21.92ZM95.3371 25.872C95.3371 23.408 93.7691 21.776 91.6411 21.776C89.4011 21.776 87.7691 23.408 87.7691 25.952C87.7691 28.464 89.4331 30.16 91.7051 30.16C93.0011 30.16 94.2491 29.728 95.0971 28.592L94.1371 27.776C93.5451 28.608 92.7131 28.928 91.7371 28.928C90.3611 28.928 89.2891 28.016 89.1771 26.272H95.3211C95.3371 26.144 95.3371 26.016 95.3371 25.872ZM91.6251 22.96C92.8091 22.96 93.6891 23.68 93.8971 25.216H89.2091C89.4331 23.776 90.3451 22.96 91.6251 22.96Z" fill="#0091F7"/>
<path d="M119.03 24L115.675 27.355L114.97 26.645L117.615 24L114.97 21.355L115.675 20.645L119.03 24Z" fill="#9EB0C2"/>
<path d="M138.936 18.8H137.4L141.72 30H143.096L147.4 18.8H145.912L142.888 26.816C142.648 27.424 142.456 28.032 142.456 28.256H142.392C142.392 28.032 142.2 27.424 141.96 26.816L138.936 18.8ZM155.087 25.872C155.087 23.408 153.519 21.776 151.391 21.776C149.151 21.776 147.519 23.408 147.519 25.952C147.519 28.464 149.183 30.16 151.455 30.16C152.751 30.16 153.999 29.728 154.847 28.592L153.887 27.776C153.295 28.608 152.463 28.928 151.487 28.928C150.111 28.928 149.039 28.016 148.927 26.272H155.071C155.087 26.144 155.087 26.016 155.087 25.872ZM151.375 22.96C152.559 22.96 153.439 23.68 153.647 25.216H148.959C149.183 23.776 150.095 22.96 151.375 22.96ZM160.915 21.776C159.939 21.776 158.995 22.192 158.451 23.184V21.92H157.075V30H158.451V25.2C158.451 23.856 159.363 23.008 160.627 23.008C161.779 23.008 162.563 23.84 162.563 25.152V30H163.939V24.944C163.939 23.008 162.675 21.776 160.915 21.776ZM170.155 21.92H168.251V19.264L166.875 20.16V21.92H165.371V23.088H166.875V27.616C166.875 29.008 167.643 30 169.195 30H170.155V28.784H169.323C168.571 28.784 168.251 28.32 168.251 27.504V23.088H170.155V21.92ZM172.622 20.048C173.182 20.048 173.614 19.664 173.614 19.088C173.614 18.544 173.182 18.144 172.622 18.144C172.078 18.144 171.662 18.544 171.662 19.088C171.662 19.664 172.078 20.048 172.622 20.048ZM171.934 21.92V30H173.31V21.92H171.934ZM178.723 30V28.784H178.051C177.395 28.784 177.139 28.416 177.139 27.76V18H175.763V27.84C175.763 29.104 176.467 30 177.859 30H178.723ZM183.27 21.776C181.91 21.776 180.742 22.32 180.134 23.392L181.142 24.144C181.526 23.44 182.278 23.008 183.254 23.008C184.454 23.008 185.494 23.584 185.494 25.088V26.064C184.998 25.504 184.166 25.184 183.046 25.184C181.286 25.184 179.782 26.08 179.782 27.664C179.782 29.28 181.27 30.16 183.014 30.16C184.182 30.16 185.046 29.824 185.542 29.2V30H186.87V24.96C186.87 22.72 185.126 21.776 183.27 21.776ZM183.382 29.072C182.166 29.072 181.206 28.608 181.206 27.664C181.206 26.72 182.166 26.256 183.382 26.256C184.598 26.256 185.526 26.752 185.526 27.664C185.526 28.576 184.598 29.072 183.382 29.072ZM193.046 21.92H191.142V19.264L189.766 20.16V21.92H188.262V23.088H189.766V27.616C189.766 29.008 190.534 30 192.086 30H193.046V28.784H192.214C191.462 28.784 191.142 28.32 191.142 27.504V23.088H193.046V21.92ZM195.513 20.048C196.073 20.048 196.505 19.664 196.505 19.088C196.505 18.544 196.073 18.144 195.513 18.144C194.969 18.144 194.553 18.544 194.553 19.088C194.553 19.664 194.969 20.048 195.513 20.048ZM194.825 21.92V30H196.201V21.92H194.825ZM202.302 30.16C204.638 30.16 206.366 28.448 206.366 25.952C206.366 23.472 204.638 21.776 202.302 21.776C199.982 21.776 198.238 23.472 198.238 25.952C198.238 28.448 199.982 30.16 202.302 30.16ZM202.302 28.912C200.782 28.912 199.646 27.808 199.646 25.952C199.646 24.128 200.782 23.024 202.302 23.024C203.838 23.024 204.974 24.128 204.974 25.952C204.974 27.808 203.838 28.912 202.302 28.912ZM212.228 21.776C211.252 21.776 210.308 22.192 209.764 23.184V21.92H208.388V30H209.764V25.2C209.764 23.856 210.676 23.008 211.94 23.008C213.092 23.008 213.876 23.84 213.876 25.152V30H215.252V24.944C215.252 23.008 213.988 21.776 212.228 21.776Z" fill="#0091F7"/>
<path d="M239.03 24L235.675 27.355L234.97 26.645L237.615 24L234.97 21.355L235.675 20.645L239.03 24Z" fill="#9EB0C2"/>
<path d="M265.96 18.8H258.392V30H265.96V28.688H259.832V24.976H265.32V23.68H259.832V20.112H265.96V18.8ZM271.46 30.016L274.724 21.92H273.252L271.252 27.072C271.076 27.552 270.868 28.08 270.868 28.336H270.82C270.82 28.08 270.628 27.552 270.436 27.072L268.42 21.92H266.932L270.196 30.016H271.46ZM277.06 20.048C277.62 20.048 278.052 19.664 278.052 19.088C278.052 18.544 277.62 18.144 277.06 18.144C276.516 18.144 276.1 18.544 276.1 19.088C276.1 19.664 276.516 20.048 277.06 20.048ZM276.372 21.92V30H277.748V21.92H276.372ZM284.249 21.92H282.345V19.264L280.969 20.16V21.92H279.465V23.088H280.969V27.616C280.969 29.008 281.737 30 283.289 30H284.249V28.784H283.417C282.665 28.784 282.345 28.32 282.345 27.504V23.088H284.249V21.92ZM288.989 21.776C287.629 21.776 286.461 22.32 285.853 23.392L286.861 24.144C287.245 23.44 287.997 23.008 288.973 23.008C290.173 23.008 291.213 23.584 291.213 25.088V26.064C290.717 25.504 289.885 25.184 288.765 25.184C287.005 25.184 285.501 26.08 285.501 27.664C285.501 29.28 286.989 30.16 288.733 30.16C289.901 30.16 290.765 29.824 291.261 29.2V30H292.589V24.96C292.589 22.72 290.845 21.776 288.989 21.776ZM289.101 29.072C287.885 29.072 286.924 28.608 286.924 27.664C286.924 26.72 287.885 26.256 289.101 26.256C290.317 26.256 291.245 26.752 291.245 27.664C291.245 28.576 290.317 29.072 289.101 29.072ZM306.457 18.8H299.001V30H300.425V25.248H305.817V23.936H300.425V20.128H306.457V18.8ZM310.676 21.776C309.316 21.776 308.148 22.32 307.54 23.392L308.548 24.144C308.932 23.44 309.684 23.008 310.66 23.008C311.86 23.008 312.9 23.584 312.9 25.088V26.064C312.404 25.504 311.572 25.184 310.452 25.184C308.692 25.184 307.188 26.08 307.188 27.664C307.188 29.28 308.676 30.16 310.42 30.16C311.588 30.16 312.452 29.824 312.948 29.2V30H314.276V24.96C314.276 22.72 312.532 21.776 310.676 21.776ZM310.788 29.072C309.572 29.072 308.612 28.608 308.612 27.664C308.612 26.72 309.572 26.256 310.788 26.256C312.004 26.256 312.932 26.752 312.932 27.664C312.932 28.576 312.004 29.072 310.788 29.072ZM325.087 21.776C324.095 21.776 323.119 22.224 322.639 23.312C322.191 22.352 321.295 21.776 320.191 21.776C319.311 21.776 318.463 22.16 317.967 23.104V21.92H316.591V30H317.967V25.088C317.967 23.776 318.767 23.008 319.871 23.008C320.879 23.008 321.567 23.76 321.567 25.072V30H322.943V25.088C322.943 23.776 323.727 23.008 324.847 23.008C325.839 23.008 326.543 23.76 326.543 25.072V30H327.919V24.832C327.919 22.992 326.735 21.776 325.087 21.776ZM330.919 20.048C331.479 20.048 331.911 19.664 331.911 19.088C331.911 18.544 331.479 18.144 330.919 18.144C330.375 18.144 329.959 18.544 329.959 19.088C329.959 19.664 330.375 20.048 330.919 20.048ZM330.231 21.92V30H331.607V21.92H330.231ZM337.02 30V28.784H336.348C335.692 28.784 335.436 28.416 335.436 27.76V18H334.06V27.84C334.06 29.104 334.764 30 336.156 30H337.02ZM339.341 20.048C339.901 20.048 340.333 19.664 340.333 19.088C340.333 18.544 339.901 18.144 339.341 18.144C338.797 18.144 338.381 18.544 338.381 19.088C338.381 19.664 338.797 20.048 339.341 20.048ZM338.653 21.92V30H340.029V21.92H338.653ZM349.634 25.872C349.634 23.408 348.066 21.776 345.938 21.776C343.698 21.776 342.066 23.408 342.066 25.952C342.066 28.464 343.73 30.16 346.002 30.16C347.298 30.16 348.546 29.728 349.394 28.592L348.434 27.776C347.842 28.608 347.01 28.928 346.034 28.928C344.658 28.928 343.586 28.016 343.474 26.272H349.618C349.634 26.144 349.634 26.016 349.634 25.872ZM345.922 22.96C347.106 22.96 347.986 23.68 348.194 25.216H343.506C343.73 23.776 344.642 22.96 345.922 22.96Z" fill="#0091F7"/>
<path d="M373.03 24L369.675 27.355L368.97 26.645L371.615 24L368.97 21.355L369.675 20.645L373.03 24Z" fill="#9EB0C2"/>
<path d="M400.136 18.8H392.28V30H400.136V28.064H394.472V25.232H399.448V23.328H394.472V20.736H400.136V18.8ZM406.333 30L409.565 21.76H407.357L405.805 26C405.549 26.736 405.405 27.28 405.405 27.536H405.341C405.341 27.28 405.197 26.736 404.941 26L403.389 21.76H401.133L404.381 30H406.333ZM412.082 20.496C412.818 20.496 413.41 20.048 413.41 19.264C413.41 18.496 412.818 18.016 412.082 18.016C411.346 18.016 410.754 18.496 410.754 19.264C410.754 20.048 411.346 20.496 412.082 20.496ZM411.042 21.76V30H413.106V21.76H411.042ZM420.139 21.76H418.299V19.04L416.235 20.176V21.76H414.731V23.408H416.235V27.136C416.235 28.896 417.243 30 419.003 30H420.139V28.224H419.259C418.619 28.224 418.299 27.824 418.299 27.04V23.408H420.139V21.76ZM425.118 21.568C423.726 21.568 422.494 22.032 421.758 23.184L423.198 24.368C423.582 23.76 424.206 23.408 425.054 23.408C426.206 23.408 426.91 23.968 426.91 25.024V25.776C426.43 25.328 425.71 25.056 424.766 25.056C422.75 25.056 421.438 26.064 421.438 27.616C421.438 29.232 422.686 30.192 424.606 30.192C425.678 30.192 426.526 29.856 427.038 29.216V30H428.974V24.864C428.974 22.64 427.166 21.568 425.118 21.568ZM425.262 28.688C424.254 28.688 423.55 28.304 423.55 27.6C423.55 26.896 424.254 26.496 425.262 26.496C426.254 26.496 426.958 26.896 426.958 27.6C426.958 28.304 426.254 28.688 425.262 28.688ZM436.078 18.8H433.742L437.966 30H440.094L444.318 18.8H442.03L439.502 25.824C439.278 26.464 439.086 27.088 439.086 27.312H439.022C439.022 27.088 438.83 26.464 438.606 25.824L436.078 18.8ZM444.651 24.528V26.416H449.003V24.528H444.651ZM457.277 24.112C458.141 23.68 458.797 22.912 458.797 21.696C458.797 19.792 457.117 18.608 455.101 18.608C453.069 18.608 451.389 19.792 451.389 21.696C451.389 22.912 452.045 23.68 452.925 24.112C451.853 24.544 450.989 25.392 450.989 26.832C450.989 28.928 452.829 30.192 455.101 30.192C457.373 30.192 459.197 28.928 459.197 26.832C459.197 25.392 458.349 24.544 457.277 24.112ZM455.101 20.464C455.965 20.464 456.637 20.96 456.637 21.84C456.637 22.752 455.965 23.232 455.101 23.232C454.237 23.232 453.549 22.752 453.549 21.84C453.549 20.96 454.237 20.464 455.101 20.464ZM455.101 28.336C454.093 28.336 453.197 27.76 453.197 26.64C453.197 25.536 454.093 24.96 455.101 24.96C456.109 24.96 457.005 25.536 457.005 26.64C457.005 27.76 456.109 28.336 455.101 28.336ZM465.359 18.608C462.831 18.608 460.975 20.512 460.975 24.416C460.975 28.288 462.831 30.192 465.359 30.192C467.871 30.192 469.727 28.288 469.727 24.416C469.727 20.512 467.871 18.608 465.359 18.608ZM465.359 20.528C466.847 20.528 467.519 21.872 467.519 24.4C467.519 26.928 466.847 28.272 465.359 28.272C463.871 28.272 463.199 26.928 463.199 24.4C463.199 21.872 463.871 20.528 465.359 20.528ZM475.952 18.608C473.424 18.608 471.568 20.512 471.568 24.416C471.568 28.288 473.424 30.192 475.952 30.192C478.464 30.192 480.32 28.288 480.32 24.416C480.32 20.512 478.464 18.608 475.952 18.608ZM475.952 20.528C477.44 20.528 478.112 21.872 478.112 24.4C478.112 26.928 477.44 28.272 475.952 28.272C474.464 28.272 473.792 26.928 473.792 24.4C473.792 21.872 474.464 20.528 475.952 20.528Z" fill="#002766"/>
</svg>
