<svg width="1440" height="48" viewBox="0 0 1440 48" fill="none" xmlns="http://www.w3.org/2000/svg">
<rect width="1440" height="48" fill="#F5F7FA"/>
<path d="M32.928 23.696H26.816V18.8H25.392V30H26.816V25.008H32.928V30H34.368V18.8H32.928V23.696ZM40.6456 30.16C42.9816 30.16 44.7096 28.448 44.7096 25.952C44.7096 23.472 42.9816 21.776 40.6456 21.776C38.3256 21.776 36.5816 23.472 36.5816 25.952C36.5816 28.448 38.3256 30.16 40.6456 30.16ZM40.6456 28.912C39.1256 28.912 37.9896 27.808 37.9896 25.952C37.9896 24.128 39.1256 23.024 40.6456 23.024C42.1816 23.024 43.3176 24.128 43.3176 25.952C43.3176 27.808 42.1816 28.912 40.6456 28.912ZM55.2273 21.776C54.2353 21.776 53.2593 22.224 52.7793 23.312C52.3313 22.352 51.4353 21.776 50.3313 21.776C49.4513 21.776 48.6033 22.16 48.1073 23.104V21.92H46.7313V30H48.1073V25.088C48.1073 23.776 48.9073 23.008 50.0113 23.008C51.0193 23.008 51.7073 23.76 51.7073 25.072V30H53.0833V25.088C53.0833 23.776 53.8673 23.008 54.9873 23.008C55.9793 23.008 56.6833 23.76 56.6833 25.072V30H58.0593V24.832C58.0593 22.992 56.8753 21.776 55.2273 21.776ZM67.5559 25.872C67.5559 23.408 65.9879 21.776 63.8599 21.776C61.6199 21.776 59.9879 23.408 59.9879 25.952C59.9879 28.464 61.6519 30.16 63.9239 30.16C65.2199 30.16 66.4679 29.728 67.3159 28.592L66.3559 27.776C65.7639 28.608 64.9319 28.928 63.9559 28.928C62.5799 28.928 61.5079 28.016 61.3959 26.272H67.5399C67.5559 26.144 67.5559 26.016 67.5559 25.872ZM63.8439 22.96C65.0279 22.96 65.9079 23.68 66.1159 25.216H61.4279C61.6519 23.776 62.5639 22.96 63.8439 22.96ZM73.7358 21.776C72.3918 21.776 71.4638 22.48 70.9198 23.472V21.92H69.5438V33.296H70.9198V28.448C71.4638 29.44 72.3918 30.144 73.7358 30.144C75.8638 30.144 77.4798 28.448 77.4798 25.952C77.4798 23.472 75.8638 21.776 73.7358 21.776ZM73.4958 28.896C71.9758 28.896 70.8878 27.808 70.8878 25.968C70.8878 24.128 71.9758 23.024 73.4958 23.024C75.0158 23.024 76.0878 24.128 76.0878 25.968C76.0878 27.808 75.0158 28.896 73.4958 28.896ZM82.4885 21.776C81.1285 21.776 79.9605 22.32 79.3525 23.392L80.3605 24.144C80.7445 23.44 81.4965 23.008 82.4725 23.008C83.6725 23.008 84.7125 23.584 84.7125 25.088V26.064C84.2165 25.504 83.3845 25.184 82.2645 25.184C80.5045 25.184 79.0005 26.08 79.0005 27.664C79.0005 29.28 80.4885 30.16 82.2325 30.16C83.4005 30.16 84.2645 29.824 84.7605 29.2V30H86.0885V24.96C86.0885 22.72 84.3445 21.776 82.4885 21.776ZM82.6005 29.072C81.3845 29.072 80.4245 28.608 80.4245 27.664C80.4245 26.72 81.3845 26.256 82.6005 26.256C83.8165 26.256 84.7445 26.752 84.7445 27.664C84.7445 28.576 83.8165 29.072 82.6005 29.072ZM94.4351 23.408C93.9071 22.464 93.0111 21.776 91.6991 21.776C89.5871 21.776 88.0351 23.424 88.0351 25.776C88.0351 28.128 89.5871 29.792 91.6991 29.792C93.0111 29.792 93.9071 29.104 94.4351 28.144V29.696C94.4351 31.392 93.2671 32.24 91.8271 32.24C90.8191 32.24 89.9551 31.744 89.3791 30.976L88.4351 31.824C89.2031 32.912 90.4831 33.472 91.8111 33.472C94.1151 33.472 95.8111 32.112 95.8111 29.632V21.92H94.4351V23.408ZM91.9551 28.544C90.4671 28.544 89.4271 27.456 89.4271 25.776C89.4271 24.096 90.4671 23.008 91.9551 23.008C93.4271 23.008 94.4671 24.192 94.4671 25.776C94.4671 27.36 93.4271 28.544 91.9551 28.544ZM105.4 25.872C105.4 23.408 103.832 21.776 101.704 21.776C99.4636 21.776 97.8316 23.408 97.8316 25.952C97.8316 28.464 99.4956 30.16 101.768 30.16C103.064 30.16 104.312 29.728 105.16 28.592L104.2 27.776C103.608 28.608 102.776 28.928 101.8 28.928C100.424 28.928 99.3516 28.016 99.2396 26.272H105.384C105.4 26.144 105.4 26.016 105.4 25.872ZM101.688 22.96C102.872 22.96 103.752 23.68 103.96 25.216H99.2716C99.4956 23.776 100.408 22.96 101.688 22.96Z" fill="#0091F7"/>
<path d="M129.03 24L125.675 27.355L124.97 26.645L127.615 24L124.97 21.355L125.675 20.645L129.03 24Z" fill="#9EB0C2"/>
<path d="M148.936 18.8H147.4L151.72 30H153.096L157.4 18.8H155.912L152.888 26.816C152.648 27.424 152.456 28.032 152.456 28.256H152.392C152.392 28.032 152.2 27.424 151.96 26.816L148.936 18.8ZM165.087 25.872C165.087 23.408 163.519 21.776 161.391 21.776C159.151 21.776 157.519 23.408 157.519 25.952C157.519 28.464 159.183 30.16 161.455 30.16C162.751 30.16 163.999 29.728 164.847 28.592L163.887 27.776C163.295 28.608 162.463 28.928 161.487 28.928C160.111 28.928 159.039 28.016 158.927 26.272H165.071C165.087 26.144 165.087 26.016 165.087 25.872ZM161.375 22.96C162.559 22.96 163.439 23.68 163.647 25.216H158.959C159.183 23.776 160.095 22.96 161.375 22.96ZM170.915 21.776C169.939 21.776 168.995 22.192 168.451 23.184V21.92H167.075V30H168.451V25.2C168.451 23.856 169.363 23.008 170.627 23.008C171.779 23.008 172.563 23.84 172.563 25.152V30H173.939V24.944C173.939 23.008 172.675 21.776 170.915 21.776ZM180.155 21.92H178.251V19.264L176.875 20.16V21.92H175.371V23.088H176.875V27.616C176.875 29.008 177.643 30 179.195 30H180.155V28.784H179.323C178.571 28.784 178.251 28.32 178.251 27.504V23.088H180.155V21.92ZM182.622 20.048C183.182 20.048 183.614 19.664 183.614 19.088C183.614 18.544 183.182 18.144 182.622 18.144C182.078 18.144 181.662 18.544 181.662 19.088C181.662 19.664 182.078 20.048 182.622 20.048ZM181.934 21.92V30H183.31V21.92H181.934ZM188.723 30V28.784H188.051C187.395 28.784 187.139 28.416 187.139 27.76V18H185.763V27.84C185.763 29.104 186.467 30 187.859 30H188.723ZM193.27 21.776C191.91 21.776 190.742 22.32 190.134 23.392L191.142 24.144C191.526 23.44 192.278 23.008 193.254 23.008C194.454 23.008 195.494 23.584 195.494 25.088V26.064C194.998 25.504 194.166 25.184 193.046 25.184C191.286 25.184 189.782 26.08 189.782 27.664C189.782 29.28 191.27 30.16 193.014 30.16C194.182 30.16 195.046 29.824 195.542 29.2V30H196.87V24.96C196.87 22.72 195.126 21.776 193.27 21.776ZM193.382 29.072C192.166 29.072 191.206 28.608 191.206 27.664C191.206 26.72 192.166 26.256 193.382 26.256C194.598 26.256 195.526 26.752 195.526 27.664C195.526 28.576 194.598 29.072 193.382 29.072ZM203.046 21.92H201.142V19.264L199.766 20.16V21.92H198.262V23.088H199.766V27.616C199.766 29.008 200.534 30 202.086 30H203.046V28.784H202.214C201.462 28.784 201.142 28.32 201.142 27.504V23.088H203.046V21.92ZM205.513 20.048C206.073 20.048 206.505 19.664 206.505 19.088C206.505 18.544 206.073 18.144 205.513 18.144C204.969 18.144 204.553 18.544 204.553 19.088C204.553 19.664 204.969 20.048 205.513 20.048ZM204.825 21.92V30H206.201V21.92H204.825ZM212.302 30.16C214.638 30.16 216.366 28.448 216.366 25.952C216.366 23.472 214.638 21.776 212.302 21.776C209.982 21.776 208.238 23.472 208.238 25.952C208.238 28.448 209.982 30.16 212.302 30.16ZM212.302 28.912C210.782 28.912 209.646 27.808 209.646 25.952C209.646 24.128 210.782 23.024 212.302 23.024C213.838 23.024 214.974 24.128 214.974 25.952C214.974 27.808 213.838 28.912 212.302 28.912ZM222.228 21.776C221.252 21.776 220.308 22.192 219.764 23.184V21.92H218.388V30H219.764V25.2C219.764 23.856 220.676 23.008 221.94 23.008C223.092 23.008 223.876 23.84 223.876 25.152V30H225.252V24.944C225.252 23.008 223.988 21.776 222.228 21.776Z" fill="#0091F7"/>
<path d="M249.03 24L245.675 27.355L244.97 26.645L247.615 24L244.97 21.355L245.675 20.645L249.03 24Z" fill="#9EB0C2"/>
<path d="M275.96 18.8H268.392V30H275.96V28.688H269.832V24.976H275.32V23.68H269.832V20.112H275.96V18.8ZM281.46 30.016L284.724 21.92H283.252L281.252 27.072C281.076 27.552 280.868 28.08 280.868 28.336H280.82C280.82 28.08 280.628 27.552 280.436 27.072L278.42 21.92H276.932L280.196 30.016H281.46ZM287.06 20.048C287.62 20.048 288.052 19.664 288.052 19.088C288.052 18.544 287.62 18.144 287.06 18.144C286.516 18.144 286.1 18.544 286.1 19.088C286.1 19.664 286.516 20.048 287.06 20.048ZM286.372 21.92V30H287.748V21.92H286.372ZM294.249 21.92H292.345V19.264L290.969 20.16V21.92H289.465V23.088H290.969V27.616C290.969 29.008 291.737 30 293.289 30H294.249V28.784H293.417C292.665 28.784 292.345 28.32 292.345 27.504V23.088H294.249V21.92ZM298.989 21.776C297.629 21.776 296.461 22.32 295.853 23.392L296.861 24.144C297.245 23.44 297.997 23.008 298.973 23.008C300.173 23.008 301.213 23.584 301.213 25.088V26.064C300.717 25.504 299.885 25.184 298.765 25.184C297.005 25.184 295.501 26.08 295.501 27.664C295.501 29.28 296.989 30.16 298.733 30.16C299.901 30.16 300.765 29.824 301.261 29.2V30H302.589V24.96C302.589 22.72 300.845 21.776 298.989 21.776ZM299.101 29.072C297.885 29.072 296.924 28.608 296.924 27.664C296.924 26.72 297.885 26.256 299.101 26.256C300.317 26.256 301.245 26.752 301.245 27.664C301.245 28.576 300.317 29.072 299.101 29.072ZM316.457 18.8H309.001V30H310.425V25.248H315.817V23.936H310.425V20.128H316.457V18.8ZM320.676 21.776C319.316 21.776 318.148 22.32 317.54 23.392L318.548 24.144C318.932 23.44 319.684 23.008 320.66 23.008C321.86 23.008 322.9 23.584 322.9 25.088V26.064C322.404 25.504 321.572 25.184 320.452 25.184C318.692 25.184 317.188 26.08 317.188 27.664C317.188 29.28 318.676 30.16 320.42 30.16C321.588 30.16 322.452 29.824 322.948 29.2V30H324.276V24.96C324.276 22.72 322.532 21.776 320.676 21.776ZM320.788 29.072C319.572 29.072 318.612 28.608 318.612 27.664C318.612 26.72 319.572 26.256 320.788 26.256C322.004 26.256 322.932 26.752 322.932 27.664C322.932 28.576 322.004 29.072 320.788 29.072ZM335.087 21.776C334.095 21.776 333.119 22.224 332.639 23.312C332.191 22.352 331.295 21.776 330.191 21.776C329.311 21.776 328.463 22.16 327.967 23.104V21.92H326.591V30H327.967V25.088C327.967 23.776 328.767 23.008 329.871 23.008C330.879 23.008 331.567 23.76 331.567 25.072V30H332.943V25.088C332.943 23.776 333.727 23.008 334.847 23.008C335.839 23.008 336.543 23.76 336.543 25.072V30H337.919V24.832C337.919 22.992 336.735 21.776 335.087 21.776ZM340.919 20.048C341.479 20.048 341.911 19.664 341.911 19.088C341.911 18.544 341.479 18.144 340.919 18.144C340.375 18.144 339.959 18.544 339.959 19.088C339.959 19.664 340.375 20.048 340.919 20.048ZM340.231 21.92V30H341.607V21.92H340.231ZM347.02 30V28.784H346.348C345.692 28.784 345.436 28.416 345.436 27.76V18H344.06V27.84C344.06 29.104 344.764 30 346.156 30H347.02ZM349.341 20.048C349.901 20.048 350.333 19.664 350.333 19.088C350.333 18.544 349.901 18.144 349.341 18.144C348.797 18.144 348.381 18.544 348.381 19.088C348.381 19.664 348.797 20.048 349.341 20.048ZM348.653 21.92V30H350.029V21.92H348.653ZM359.634 25.872C359.634 23.408 358.066 21.776 355.938 21.776C353.698 21.776 352.066 23.408 352.066 25.952C352.066 28.464 353.73 30.16 356.002 30.16C357.298 30.16 358.546 29.728 359.394 28.592L358.434 27.776C357.842 28.608 357.01 28.928 356.034 28.928C354.658 28.928 353.586 28.016 353.474 26.272H359.618C359.634 26.144 359.634 26.016 359.634 25.872ZM355.922 22.96C357.106 22.96 357.986 23.68 358.194 25.216H353.506C353.73 23.776 354.642 22.96 355.922 22.96Z" fill="#0091F7"/>
<path d="M383.03 24L379.675 27.355L378.97 26.645L381.615 24L378.97 21.355L379.675 20.645L383.03 24Z" fill="#9EB0C2"/>
<path d="M410.136 18.8H402.28V30H410.136V28.064H404.472V25.232H409.448V23.328H404.472V20.736H410.136V18.8ZM416.333 30L419.565 21.76H417.357L415.805 26C415.549 26.736 415.405 27.28 415.405 27.536H415.341C415.341 27.28 415.197 26.736 414.941 26L413.389 21.76H411.133L414.381 30H416.333ZM422.082 20.496C422.818 20.496 423.41 20.048 423.41 19.264C423.41 18.496 422.818 18.016 422.082 18.016C421.346 18.016 420.754 18.496 420.754 19.264C420.754 20.048 421.346 20.496 422.082 20.496ZM421.042 21.76V30H423.106V21.76H421.042ZM430.139 21.76H428.299V19.04L426.235 20.176V21.76H424.731V23.408H426.235V27.136C426.235 28.896 427.243 30 429.003 30H430.139V28.224H429.259C428.619 28.224 428.299 27.824 428.299 27.04V23.408H430.139V21.76ZM435.118 21.568C433.726 21.568 432.494 22.032 431.758 23.184L433.198 24.368C433.582 23.76 434.206 23.408 435.054 23.408C436.206 23.408 436.91 23.968 436.91 25.024V25.776C436.43 25.328 435.71 25.056 434.766 25.056C432.75 25.056 431.438 26.064 431.438 27.616C431.438 29.232 432.686 30.192 434.606 30.192C435.678 30.192 436.526 29.856 437.038 29.216V30H438.974V24.864C438.974 22.64 437.166 21.568 435.118 21.568ZM435.262 28.688C434.254 28.688 433.55 28.304 433.55 27.6C433.55 26.896 434.254 26.496 435.262 26.496C436.254 26.496 436.958 26.896 436.958 27.6C436.958 28.304 436.254 28.688 435.262 28.688ZM446.078 18.8H443.742L447.966 30H450.094L454.318 18.8H452.03L449.502 25.824C449.278 26.464 449.086 27.088 449.086 27.312H449.022C449.022 27.088 448.83 26.464 448.606 25.824L446.078 18.8ZM454.651 24.528V26.416H459.003V24.528H454.651ZM467.277 24.112C468.141 23.68 468.797 22.912 468.797 21.696C468.797 19.792 467.117 18.608 465.101 18.608C463.069 18.608 461.389 19.792 461.389 21.696C461.389 22.912 462.045 23.68 462.925 24.112C461.853 24.544 460.989 25.392 460.989 26.832C460.989 28.928 462.829 30.192 465.101 30.192C467.373 30.192 469.197 28.928 469.197 26.832C469.197 25.392 468.349 24.544 467.277 24.112ZM465.101 20.464C465.965 20.464 466.637 20.96 466.637 21.84C466.637 22.752 465.965 23.232 465.101 23.232C464.237 23.232 463.549 22.752 463.549 21.84C463.549 20.96 464.237 20.464 465.101 20.464ZM465.101 28.336C464.093 28.336 463.197 27.76 463.197 26.64C463.197 25.536 464.093 24.96 465.101 24.96C466.109 24.96 467.005 25.536 467.005 26.64C467.005 27.76 466.109 28.336 465.101 28.336ZM475.359 18.608C472.831 18.608 470.975 20.512 470.975 24.416C470.975 28.288 472.831 30.192 475.359 30.192C477.871 30.192 479.727 28.288 479.727 24.416C479.727 20.512 477.871 18.608 475.359 18.608ZM475.359 20.528C476.847 20.528 477.519 21.872 477.519 24.4C477.519 26.928 476.847 28.272 475.359 28.272C473.871 28.272 473.199 26.928 473.199 24.4C473.199 21.872 473.871 20.528 475.359 20.528ZM485.952 18.608C483.424 18.608 481.568 20.512 481.568 24.416C481.568 28.288 483.424 30.192 485.952 30.192C488.464 30.192 490.32 28.288 490.32 24.416C490.32 20.512 488.464 18.608 485.952 18.608ZM485.952 20.528C487.44 20.528 488.112 21.872 488.112 24.4C488.112 26.928 487.44 28.272 485.952 28.272C484.464 28.272 483.792 26.928 483.792 24.4C483.792 21.872 484.464 20.528 485.952 20.528Z" fill="#002766"/>
</svg>
